<svg width="130" height="30" viewBox="0 0 130 30" fill="none" xmlns="http://www.w3.org/2000/svg">
<path d="M12.889 14.13L0 5.382L0.039 21.252L12.932 30L25.776 21.185L25.737 5.315L12.889 14.13ZM23.2 19.913L12.924 26.972L2.609 19.965V16.724L12.926 23.724L23.193 16.67L23.2 19.913ZM23.183 13.359L12.909 20.411L2.592 13.411V10.165L12.9 17.174L23.178 10.12L23.183 13.359Z" fill="#1E8D8C"/>
<path d="M10.348 9.30299L12.883 11.025L21.183 5.325L18.648 3.60699L10.348 9.30299Z" fill="#17283C"/>
<path d="M7.57504 7.417L5.03503 5.7L13.335 0L15.868 1.722L7.57504 7.417Z" fill="#17283C"/>
<path d="M43.912 5.38901C44.1352 5.38901 44.3492 5.47767 44.507 5.63548C44.6648 5.79329 44.7535 6.00733 44.7535 6.23051C44.7535 6.45369 44.6648 6.66772 44.507 6.82554C44.3492 6.98335 44.1352 7.07201 43.912 7.07201L38.612 7.08501C38.623 11.478 38.658 15.944 38.669 20.346C38.6711 20.4651 38.6494 20.5834 38.605 20.694C38.5606 20.8045 38.4945 20.9051 38.4106 20.9896C38.3267 21.0742 38.2267 21.1411 38.1165 21.1863C38.0063 21.2316 37.8881 21.2542 37.769 21.253C37.6525 21.2539 37.537 21.2308 37.4296 21.1854C37.3223 21.1399 37.2254 21.073 37.145 20.9887C37.0645 20.9044 37.0021 20.8045 36.9617 20.6951C36.9213 20.5858 36.9037 20.4694 36.91 20.353L36.877 7.10301H31.618C31.3948 7.10301 31.1808 7.01435 31.023 6.85654C30.8652 6.69872 30.7765 6.48469 30.7765 6.26151C30.7765 6.03833 30.8652 5.82429 31.023 5.66648C31.1808 5.50867 31.3948 5.42001 31.618 5.42001L43.912 5.38901Z" fill="#17283C"/>
<path d="M45.394 16.829L43.479 20.69C43.044 21.59 41.486 20.964 41.909 19.99L49.05 5.44998C49.1216 5.30495 49.2336 5.18371 49.3725 5.10085C49.5115 5.018 49.6714 4.97707 49.833 4.98298C49.9908 4.97961 50.1463 5.0214 50.2811 5.10343C50.4159 5.18546 50.5245 5.30431 50.594 5.44599L57.781 19.872C58.401 20.92 56.644 21.535 56.19 20.585L54.329 16.807L45.394 16.829ZM49.84 7.59398L46.107 15.294L53.587 15.277L49.84 7.59398Z" fill="#17283C"/>
<path d="M60.937 15.448L60.948 20.183C60.939 20.4053 60.8453 20.6158 60.6861 20.7712C60.5269 20.9266 60.3142 21.0152 60.0917 21.0187C59.8693 21.0223 59.6539 20.9406 59.4897 20.7904C59.3256 20.6402 59.2251 20.4329 59.209 20.211L59.174 6.20399C59.1686 6.0889 59.1875 5.97395 59.2295 5.86665C59.2714 5.75934 59.3356 5.66209 59.4177 5.58124C59.4997 5.50038 59.5979 5.43772 59.7059 5.39736C59.8138 5.357 59.929 5.33984 60.044 5.34699L65.672 5.33399C69.781 5.32299 71.879 7.70999 71.885 10.564C71.885 13.027 70.585 14.812 67.668 15.331L71.527 19.592C71.6152 19.6671 71.6868 19.7598 71.7373 19.864C71.7878 19.9683 71.8161 20.0819 71.8204 20.1977C71.8247 20.3134 71.805 20.4288 71.7624 20.5366C71.7198 20.6443 71.6554 20.742 71.5731 20.8235C71.4908 20.9051 71.3925 20.9686 71.2843 21.0102C71.1762 21.0518 71.0606 21.0704 70.9449 21.065C70.8292 21.0596 70.7159 21.0302 70.6121 20.9788C70.5083 20.9273 70.4163 20.8548 70.342 20.766L65.542 15.433L60.937 15.448ZM60.937 13.911L65.737 13.898C68.848 13.898 70.198 12.398 70.146 10.57C70.113 8.56999 68.479 6.95699 65.716 6.96999H60.916L60.937 13.911Z" fill="#17283C"/>
<path d="M75.525 19.241L84.905 19.219C85.1183 19.219 85.323 19.3038 85.4739 19.4546C85.6247 19.6055 85.7095 19.8101 85.7095 20.0235C85.7095 20.2369 85.6247 20.4415 85.4739 20.5924C85.323 20.7432 85.1183 20.828 84.905 20.828L74.905 20.854C74.7621 20.8594 74.6196 20.8354 74.4862 20.7836C74.3529 20.7319 74.2316 20.6533 74.1298 20.5529C74.028 20.4525 73.9478 20.3323 73.8941 20.1997C73.8405 20.0671 73.8146 19.925 73.818 19.782L73.783 6.382C73.7823 6.24069 73.8103 6.10072 73.8651 5.97049C73.92 5.84026 74.0006 5.72247 74.1022 5.6242C74.2037 5.52593 74.3241 5.44921 74.456 5.39865C74.588 5.34809 74.7288 5.32474 74.87 5.33L84.892 5.306C85.0944 5.31536 85.2852 5.40302 85.4242 5.55046C85.5632 5.69789 85.6394 5.89357 85.6368 6.09617C85.6342 6.29877 85.553 6.49243 85.4103 6.63626C85.2676 6.78009 85.0746 6.86283 84.872 6.867L75.492 6.891L75.507 12.391L84.437 12.369C84.6356 12.3813 84.8221 12.4689 84.9584 12.6139C85.0947 12.759 85.1706 12.9505 85.1706 13.1495C85.1706 13.3485 85.0947 13.5401 84.9584 13.6851C84.8221 13.8301 84.6356 13.9177 84.437 13.93L75.507 13.954L75.525 19.241Z" fill="#17283C"/>
<path d="M98.6679 5.869C98.6679 4.845 100.468 4.782 100.468 5.869L100.503 19.876C100.503 21.096 98.868 21.222 98.368 20.369L89.4529 8.154L89.653 11.521L89.67 20.134C89.67 20.3727 89.5751 20.6016 89.4063 20.7704C89.2376 20.9392 89.0087 21.034 88.77 21.034C88.5313 21.034 88.3023 20.9392 88.1335 20.7704C87.9648 20.6016 87.87 20.3727 87.87 20.134L87.835 6.151C87.8174 5.91561 87.8825 5.68147 88.019 5.48894C88.1556 5.29641 88.3551 5.15755 88.583 5.09629C88.811 5.03504 89.0531 5.05523 89.2678 5.15339C89.4825 5.25154 89.6562 5.42151 89.7589 5.634L98.933 18.177L98.6899 14.499L98.6679 5.869Z" fill="#17283C"/>
<path d="M114.375 5.22099C114.488 5.21709 114.601 5.236 114.706 5.27659C114.812 5.31717 114.908 5.3786 114.99 5.45722C115.071 5.53584 115.136 5.63003 115.18 5.73419C115.224 5.83835 115.247 5.95034 115.247 6.06349C115.247 6.17664 115.224 6.28863 115.18 6.39279C115.136 6.49694 115.071 6.59114 114.99 6.66976C114.908 6.74838 114.812 6.80981 114.706 6.85039C114.601 6.89098 114.488 6.90989 114.375 6.90599L109.075 6.91899C109.075 11.31 109.121 15.776 109.132 20.18C109.134 20.2986 109.111 20.4163 109.067 20.5261C109.022 20.636 108.956 20.7358 108.872 20.8197C108.788 20.9035 108.688 20.9698 108.578 21.0145C108.468 21.0592 108.351 21.0815 108.232 21.08C108.115 21.0827 107.998 21.061 107.889 21.0163C107.78 20.9716 107.682 20.9049 107.6 20.8204C107.518 20.7358 107.455 20.6353 107.414 20.5251C107.373 20.4149 107.355 20.2974 107.362 20.18L107.329 6.92999L102.057 6.94299C101.834 6.94299 101.62 6.85433 101.462 6.69652C101.304 6.53871 101.216 6.32467 101.216 6.10149C101.216 5.87831 101.304 5.66427 101.462 5.50646C101.62 5.34865 101.834 5.25999 102.057 5.25999L114.375 5.22099Z" fill="#17283C"/>
<path d="M114.704 12.726C114.645 10.8987 115.246 9.11122 116.399 7.69194C117.551 6.27266 119.177 5.31683 120.978 5C121.814 4.89022 122.662 4.89022 123.498 5C125.324 5.28798 126.985 6.22324 128.179 7.63494C129.372 9.04665 130.018 10.8406 129.998 12.689C130.011 17.763 126.457 20.989 122.418 21.004C118.145 21.013 114.717 17.896 114.704 12.726ZM116.484 12.796C116.484 16.796 119.067 19.329 122.414 19.318C125.621 19.318 128.251 16.864 128.242 12.764C128.299 11.3145 127.828 9.89354 126.916 8.76494C126.005 7.63634 124.715 6.8767 123.286 6.627C122.6 6.52911 121.905 6.52911 121.219 6.627C118.348 7.104 116.478 9.476 116.484 12.796Z" fill="#17283C"/>
</svg>
